<svg width="16" height="16" viewBox="0 0 16 16" fill="none" xmlns="http://www.w3.org/2000/svg">
<g clip-path="url(#clip0_770_178)">
<path d="M6.1021 3.60556C6.94654 2.09073 7.36875 1.33331 8 1.33331C8.63124 1.33331 9.05345 2.09073 9.89789 3.60556L10.1164 3.99747C10.3563 4.42794 10.4763 4.64317 10.6634 4.78518C10.8504 4.9272 11.0834 4.97991 11.5494 5.08535L11.9736 5.18133C13.6134 5.55235 14.4333 5.73786 14.6284 6.36513C14.8234 6.99241 14.2645 7.64603 13.1466 8.95326L12.8574 9.29146C12.5397 9.66294 12.3809 9.84867 12.3094 10.0785C12.238 10.3082 12.262 10.5561 12.31 11.0517L12.3537 11.5029C12.5227 13.247 12.6072 14.1191 12.0966 14.5068C11.5859 14.8945 10.8182 14.541 9.28288 13.8341L8.88567 13.6512C8.44938 13.4503 8.23123 13.3499 8 13.3499C7.76876 13.3499 7.55061 13.4503 7.11432 13.6512L6.71711 13.8341C5.18178 14.541 4.41411 14.8945 3.90343 14.5068C3.39274 14.1191 3.47725 13.247 3.64626 11.5029L3.68998 11.0517C3.73801 10.5561 3.76203 10.3082 3.69057 10.0785C3.61911 9.84867 3.46028 9.66294 3.14261 9.29146L2.85339 8.95326C1.73549 7.64603 1.17654 6.99241 1.37161 6.36513C1.56667 5.73786 2.38657 5.55235 4.02635 5.18133L4.45059 5.08535C4.91656 4.97991 5.14955 4.9272 5.33662 4.78518C5.5237 4.64317 5.64368 4.42794 5.88364 3.99747L6.1021 3.60556Z" fill="#FFB800" stroke="#FFE143"/>
</g>
<defs>
<clipPath id="clip0_770_178">
<rect width="16" height="16" rx="5" fill="white"/>
</clipPath>
</defs>
</svg>
